<?xml version="1.0" encoding="UTF-8" ?>
<!DOCTYPE svg PUBLIC "-//W3C//DTD SVG 1.1//EN" "http://www.w3.org/Graphics/SVG/1.1/DTD/svg11.dtd">
<svg width="512pt" height="512pt" viewBox="0 0 512 512" version="1.1" xmlns="http://www.w3.org/2000/svg">
<g id="#000000ff">
<path fill="#ff0000" opacity="1.00" d=" M 266.21 9.31 C 279.02 5.55 292.16 3.09 305.15 0.03 C 300.81 16.33 295.95 32.51 292.70 49.08 C 287.60 75.02 285.15 101.87 289.35 128.13 C 292.01 143.64 296.98 159.46 307.54 171.48 C 313.65 178.43 322.56 183.64 332.08 182.91 C 342.47 182.24 351.31 175.49 357.76 167.75 C 368.82 154.57 373.72 137.75 380.80 122.37 C 391.16 136.40 402.28 149.98 410.82 165.26 C 420.14 181.64 427.00 199.47 430.57 217.99 C 435.49 243.01 434.05 269.15 426.77 293.56 C 431.17 290.03 435.32 286.16 438.76 281.68 C 446.79 271.26 454.78 260.82 462.82 250.41 C 463.56 263.62 464.31 276.83 465.04 290.05 C 466.28 311.72 464.23 333.60 458.82 354.63 C 445.93 405.44 413.00 450.73 368.81 478.88 C 336.87 499.61 299.13 510.89 261.12 512.00 L 251.79 512.00 C 222.32 511.19 192.95 504.51 166.35 491.73 C 117.04 468.51 77.64 425.24 59.14 373.97 C 44.78 334.59 42.71 290.86 53.19 250.28 C 56.08 239.21 59.03 228.14 61.97 217.08 C 66.96 224.38 71.95 231.69 76.91 239.02 C 85.67 252.54 97.45 263.78 109.79 274.01 C 109.52 242.24 112.55 210.39 119.56 179.38 C 129.22 136.95 147.40 95.51 177.40 63.48 C 201.28 37.68 232.52 19.10 266.21 9.31 M 181.47 106.41 C 157.10 143.40 145.98 187.51 141.69 231.16 C 139.20 258.31 138.99 285.78 142.56 312.85 C 143.31 319.29 144.07 325.72 144.82 332.16 C 133.97 325.69 123.02 319.39 112.28 312.72 C 99.82 304.82 88.18 295.67 77.42 285.58 C 73.87 322.43 82.03 360.33 100.72 392.31 C 116.58 419.70 139.80 442.77 167.30 458.43 C 162.78 449.75 159.44 440.46 157.59 430.85 C 154.76 416.40 155.64 401.55 157.12 387.00 C 160.47 356.76 171.14 326.60 191.42 303.51 C 210.62 281.55 237.36 266.30 266.01 260.89 C 278.15 259.27 290.31 257.82 302.46 256.26 C 295.27 266.10 287.94 275.85 280.79 285.72 C 270.50 300.03 268.08 320.04 276.02 335.97 C 278.53 340.80 282.05 345.76 287.43 347.58 C 291.80 348.68 295.63 345.37 298.37 342.38 C 302.76 337.17 306.53 331.47 310.66 326.05 C 315.60 330.52 320.65 334.89 325.49 339.47 C 342.33 355.58 353.20 377.75 355.66 400.92 C 357.86 420.62 353.91 440.88 344.73 458.43 C 364.00 447.31 381.30 432.73 395.28 415.40 C 416.40 389.59 429.99 357.74 434.05 324.64 C 423.73 330.22 411.91 333.60 400.12 332.31 C 391.68 331.28 383.29 329.91 374.88 328.76 C 380.96 318.84 388.35 309.64 392.85 298.83 C 399.64 283.11 403.32 266.05 403.48 248.93 C 403.86 225.20 396.97 201.73 385.41 181.13 C 379.35 189.38 372.19 196.94 363.60 202.59 C 350.96 211.10 335.02 215.02 319.97 212.02 C 304.61 209.12 291.20 199.49 281.75 187.28 C 266.89 168.12 260.30 143.88 258.09 120.07 C 255.73 93.87 258.41 67.46 263.55 41.74 C 230.07 53.59 200.85 76.67 181.47 106.41 M 210.18 328.13 C 192.97 350.52 186.36 379.24 185.82 407.03 C 185.33 417.59 186.85 428.30 190.90 438.10 C 196.77 452.65 207.71 465.05 221.35 472.79 C 235.64 481.02 252.90 483.84 269.09 480.73 C 285.59 477.66 300.81 468.38 311.15 455.16 C 321.84 441.71 327.31 424.22 326.05 407.07 C 325.22 393.73 320.34 380.76 312.49 369.96 C 304.04 376.00 293.30 379.26 282.95 377.31 C 270.37 375.14 259.77 366.48 252.94 355.97 C 242.38 339.78 239.29 319.40 242.62 300.52 C 230.02 307.30 218.84 316.72 210.18 328.13 Z" />
</g>
</svg>
