<?xml version="1.0" encoding="UTF-8" ?>
<!DOCTYPE svg PUBLIC "-//W3C//DTD SVG 1.1//EN" "http://www.w3.org/Graphics/SVG/1.1/DTD/svg11.dtd">
<svg width="512pt" height="512pt" viewBox="0 0 512 512" version="1.1" xmlns="http://www.w3.org/2000/svg">
<g id="#000000ff">
<path fill="#ff0000" opacity="1.00" d=" M 470.61 0.00 L 474.07 0.00 C 481.35 0.89 487.28 7.55 486.93 14.94 C 486.95 126.62 486.93 238.29 486.94 349.96 C 487.04 357.72 485.68 365.51 482.68 372.68 C 477.34 385.60 467.33 396.18 455.66 403.64 C 438.08 414.89 416.76 419.55 396.05 418.35 C 376.76 417.24 357.50 410.84 342.29 398.74 C 331.77 390.41 323.33 379.05 319.82 365.99 C 315.89 351.81 317.96 336.13 325.37 323.43 C 334.36 307.77 349.85 296.68 366.58 290.50 C 396.36 279.66 431.52 282.76 457.97 300.62 C 457.97 244.63 457.99 188.63 457.96 132.64 C 370.04 160.63 282.12 188.61 194.17 216.52 C 194.12 289.00 194.17 361.49 194.15 433.98 C 194.09 441.94 194.60 450.04 192.59 457.83 C 189.03 472.88 178.96 485.73 166.53 494.61 C 151.19 505.68 132.34 511.12 113.57 512.00 L 104.76 512.00 C 91.30 511.14 77.87 508.21 65.70 502.29 C 51.26 495.36 38.31 484.38 31.04 469.92 C 24.11 456.32 23.17 439.85 28.51 425.56 C 33.44 412.15 43.45 401.09 55.25 393.28 C 72.77 381.74 94.18 376.74 115.03 377.86 C 132.78 378.69 150.42 384.05 165.17 394.07 C 165.20 298.70 165.16 203.34 165.19 107.97 C 164.93 101.59 169.32 95.43 175.46 93.64 C 252.63 69.15 329.79 44.60 406.96 20.10 C 428.18 13.43 449.31 6.43 470.61 0.00 M 194.15 118.07 C 194.15 140.73 194.15 163.39 194.15 186.04 C 282.11 158.17 370.06 130.25 457.98 102.24 C 457.97 79.57 457.97 56.91 457.97 34.25 C 370.05 62.25 282.08 90.09 194.15 118.07 M 396.31 313.46 C 382.21 314.64 367.97 319.56 357.50 329.33 C 350.74 335.58 346.00 344.71 347.12 354.10 C 348.15 363.81 354.72 371.99 362.43 377.52 C 374.98 386.45 390.76 390.13 406.02 389.47 C 420.56 388.76 435.34 384.08 446.41 374.38 C 453.61 368.06 458.95 358.71 457.90 348.87 C 456.92 338.87 450.08 330.51 442.11 324.90 C 428.87 315.72 412.23 312.24 396.31 313.46 M 96.52 407.78 C 83.53 410.09 70.59 415.69 61.75 425.76 C 55.86 432.38 52.57 441.71 54.71 450.51 C 57.23 461.32 65.95 469.47 75.38 474.63 C 92.21 483.73 112.69 485.26 130.97 479.97 C 141.70 476.77 152.08 471.07 158.98 462.06 C 163.97 455.62 166.45 446.99 164.44 438.97 C 162.14 429.26 154.72 421.63 146.43 416.53 C 131.65 407.51 113.46 404.93 96.52 407.78 Z" />
</g>
</svg>
