<?xml version="1.0" encoding="UTF-8" ?>
<!DOCTYPE svg PUBLIC "-//W3C//DTD SVG 1.1//EN" "http://www.w3.org/Graphics/SVG/1.1/DTD/svg11.dtd">
<svg width="512pt" height="512pt" viewBox="0 0 512 512" version="1.1" xmlns="http://www.w3.org/2000/svg">
<g id="#000000ff">
<path fill="#002bfd" opacity="1.00" d=" M 255.29 0.00 L 256.64 0.00 C 262.18 0.34 266.84 5.32 266.58 10.90 C 266.66 29.53 266.57 48.16 266.62 66.79 C 279.71 53.82 292.64 40.68 305.76 27.73 C 309.92 23.39 317.70 23.88 321.34 28.66 C 324.90 32.84 324.26 39.53 320.24 43.18 C 302.39 61.10 284.47 78.94 266.61 96.84 C 266.62 117.14 266.60 137.45 266.62 157.75 C 288.84 138.94 311.00 120.06 333.20 101.23 C 335.73 98.98 339.25 97.79 342.61 98.55 C 347.42 99.45 351.26 104.05 351.05 108.98 C 350.91 112.08 350.14 115.12 349.63 118.18 C 344.89 144.83 340.13 171.48 335.40 198.14 C 353.17 187.95 370.93 177.74 388.69 167.53 C 395.30 143.21 401.84 118.87 408.42 94.54 C 409.28 90.67 412.22 87.29 416.12 86.31 C 421.03 84.87 426.69 87.60 428.60 92.34 C 429.85 94.97 429.52 97.97 428.77 100.69 C 424.09 117.96 419.41 135.23 414.78 152.51 C 431.09 143.22 447.31 133.76 463.63 124.49 C 469.35 121.02 477.54 124.57 479.00 131.07 C 480.37 135.86 477.74 141.08 473.39 143.31 C 457.40 152.55 441.37 161.71 425.37 170.93 C 443.19 175.79 461.08 180.44 478.87 185.45 C 484.42 186.94 487.80 193.46 485.86 198.87 C 484.27 204.11 478.21 207.38 472.95 205.76 C 448.38 199.19 423.85 192.46 399.27 185.91 C 381.75 196.00 364.19 206.03 346.70 216.17 C 373.79 225.78 400.83 235.51 427.91 245.15 C 431.60 246.28 434.93 249.04 435.86 252.90 C 437.45 258.23 434.04 264.18 428.78 265.78 C 401.41 275.76 374.00 285.65 346.60 295.53 C 364.19 305.63 381.83 315.67 399.43 325.76 C 423.87 319.17 448.28 312.45 472.71 305.81 C 478.54 303.84 485.39 307.88 486.35 313.97 C 487.52 319.44 483.61 325.12 478.21 326.30 C 460.67 331.16 443.10 335.91 425.53 340.67 C 441.66 349.87 457.80 359.05 473.90 368.30 C 478.61 370.74 481.00 376.82 478.83 381.74 C 476.73 387.47 469.22 390.14 463.97 387.02 C 447.61 377.78 431.36 368.35 415.01 359.09 C 419.79 376.80 424.71 394.47 429.45 412.19 C 431.01 417.32 428.02 423.20 422.99 424.99 C 417.42 427.28 410.46 423.73 409.07 417.87 C 402.28 393.33 395.67 368.73 388.93 344.18 C 371.20 334.01 353.44 323.90 335.69 313.76 C 340.91 342.59 346.21 371.40 351.44 400.22 C 352.45 404.59 350.55 409.45 346.66 411.75 C 342.63 414.30 337.12 413.55 333.69 410.33 C 311.34 391.51 289.00 372.67 266.63 353.87 C 266.59 374.30 266.62 394.73 266.61 415.16 C 284.30 432.87 302.01 450.56 319.71 468.25 C 321.82 470.33 323.59 473.00 323.67 476.06 C 324.04 480.90 320.62 485.69 315.91 486.90 C 312.10 488.03 307.90 486.65 305.23 483.79 C 292.33 470.96 279.53 458.03 266.62 445.22 C 266.58 463.83 266.66 482.44 266.59 501.06 C 266.86 506.62 262.26 511.61 256.73 512.00 L 255.30 512.00 C 249.78 511.63 245.15 506.66 245.41 501.09 C 245.34 482.47 245.42 463.85 245.38 445.22 C 232.68 457.90 219.99 470.59 207.32 483.30 C 205.15 485.56 202.27 487.34 199.04 487.29 C 193.79 487.48 188.91 483.19 188.38 477.98 C 187.88 474.57 189.35 471.16 191.79 468.81 C 209.65 450.92 227.55 433.08 245.39 415.17 C 245.39 394.87 245.39 374.58 245.38 354.28 C 223.16 373.12 200.99 392.02 178.76 410.84 C 175.51 413.81 170.44 414.62 166.55 412.46 C 162.42 410.35 160.13 405.40 161.14 400.88 C 166.25 371.89 171.46 342.92 176.60 313.94 C 158.79 324.04 141.11 334.38 123.31 344.50 C 116.78 368.56 110.28 392.63 103.80 416.71 C 102.89 424.40 93.13 428.95 86.91 424.05 C 83.18 421.46 81.66 416.41 83.04 412.13 C 87.74 394.58 92.53 377.05 97.24 359.50 C 80.94 368.81 64.70 378.24 48.38 387.51 C 43.45 390.44 36.43 388.38 33.90 383.24 C 31.16 378.39 33.11 371.71 38.00 369.08 C 54.20 359.70 70.47 350.45 86.65 341.07 C 68.97 336.15 51.22 331.49 33.52 326.65 C 30.69 325.87 28.17 323.98 26.84 321.34 C 24.11 316.48 26.14 309.73 31.07 307.14 C 34.20 305.25 37.99 305.77 41.32 306.78 C 65.12 313.22 88.92 319.66 112.72 326.08 C 130.28 316.02 147.81 305.92 165.36 295.84 C 139.75 286.58 114.07 277.50 88.43 268.31 C 84.41 266.82 79.53 265.85 77.27 261.77 C 73.86 256.49 76.51 248.64 82.43 246.53 C 110.05 236.42 137.77 226.55 165.39 216.42 C 147.79 206.33 130.16 196.29 112.55 186.22 C 89.68 192.43 66.82 198.68 43.96 204.91 C 40.34 205.84 36.49 207.45 32.75 206.14 C 28.11 204.70 24.93 199.81 25.51 194.98 C 25.89 190.49 29.44 186.68 33.79 185.70 C 51.34 180.91 68.90 176.20 86.42 171.31 C 70.20 161.92 53.85 152.74 37.62 143.35 C 32.61 140.62 30.78 133.59 33.88 128.77 C 36.61 123.99 43.29 122.18 48.06 124.99 C 64.42 134.20 80.68 143.60 96.99 152.89 C 92.29 135.69 87.63 118.48 82.90 101.29 C 82.14 98.55 81.73 95.53 82.94 92.86 C 84.75 88.29 90.00 85.48 94.81 86.53 C 99.00 87.28 102.28 90.82 103.18 94.92 C 109.83 119.20 116.42 143.49 123.07 167.77 C 140.81 177.92 158.54 188.09 176.30 198.21 C 171.05 169.11 165.62 140.03 160.44 110.92 C 159.17 104.66 164.73 98.37 171.06 98.67 C 175.10 98.60 178.18 101.48 181.04 103.94 C 202.48 122.01 223.92 140.07 245.38 158.12 C 245.40 137.70 245.39 117.27 245.39 96.84 C 227.55 78.94 209.66 61.10 191.81 43.22 C 187.75 39.61 187.08 32.89 190.63 28.71 C 194.25 23.86 202.08 23.39 206.27 27.75 C 219.37 40.70 232.33 53.79 245.38 66.79 C 245.42 48.16 245.34 29.53 245.41 10.90 C 245.15 5.34 249.78 0.39 255.29 0.00 M 266.60 185.64 C 266.63 202.97 266.60 220.31 266.62 237.65 C 281.57 229.10 296.52 220.54 311.42 211.88 C 315.87 186.62 320.41 161.37 324.88 136.11 C 305.46 152.63 286.01 169.11 266.60 185.64 M 186.62 136.41 C 191.19 161.59 195.81 186.77 200.39 211.95 C 215.35 220.59 230.40 229.09 245.39 237.71 C 245.39 220.45 245.39 203.18 245.39 185.92 C 225.83 169.38 206.22 152.90 186.62 136.41 M 277.48 255.91 C 292.29 264.76 307.46 273.00 322.35 281.72 C 346.36 273.16 370.29 264.36 394.27 255.72 C 370.36 247.17 346.46 238.59 322.54 230.06 C 307.51 238.65 292.50 247.28 277.48 255.91 M 117.75 256.29 C 141.67 264.86 165.63 273.33 189.54 281.94 C 204.60 273.35 219.60 264.67 234.63 256.02 C 219.67 247.42 204.67 238.89 189.72 230.28 C 165.71 238.92 141.73 247.59 117.75 256.29 M 200.58 300.16 C 196.13 325.41 191.58 350.64 187.12 375.89 C 206.55 359.39 226.00 342.92 245.39 326.37 C 245.38 309.03 245.40 291.69 245.38 274.35 C 230.47 282.98 215.48 291.48 200.58 300.16 M 266.62 274.30 C 266.61 291.57 266.61 308.83 266.62 326.10 C 286.22 342.59 305.80 359.09 325.39 375.59 C 320.87 350.75 316.34 325.90 311.79 301.06 C 311.78 299.67 310.24 299.30 309.33 298.64 C 295.06 290.58 280.89 282.36 266.62 274.30 Z" />
</g>
</svg>
