<?xml version="1.0" encoding="UTF-8" ?>
<!DOCTYPE svg PUBLIC "-//W3C//DTD SVG 1.1//EN" "http://www.w3.org/Graphics/SVG/1.1/DTD/svg11.dtd">
<svg width="512pt" height="512pt" viewBox="0 0 512 512" version="1.1" xmlns="http://www.w3.org/2000/svg">
<g id="#000000ff">
<path fill="#ff0000" opacity="1.00" d=" M 29.08 0.00 L 30.12 0.00 C 68.36 38.07 106.41 76.32 144.63 114.41 C 167.39 92.93 190.14 71.43 212.89 49.94 C 216.82 45.93 223.63 45.41 228.06 48.89 C 231.27 51.18 232.85 55.16 232.73 59.02 C 232.72 106.03 232.74 153.04 232.71 200.05 C 232.67 201.47 232.91 202.97 234.10 203.92 C 241.39 211.23 248.71 218.51 256.00 225.82 C 283.50 198.37 310.97 170.88 338.43 143.40 C 333.49 139.60 326.10 137.05 324.95 130.10 C 323.01 121.87 332.03 113.96 339.93 116.98 C 345.48 119.35 350.11 123.37 355.03 126.80 C 371.58 110.29 388.10 93.76 404.61 77.22 C 400.49 73.69 396.04 70.57 391.80 67.20 C 387.50 63.92 386.17 57.49 388.79 52.76 C 391.62 47.07 399.45 44.74 404.86 48.17 C 410.59 51.92 415.82 56.38 421.13 60.69 C 439.10 42.79 457.01 24.83 474.95 6.90 C 477.07 4.62 479.64 2.74 481.23 0.00 L 482.69 0.00 C 483.15 0.95 483.72 1.82 484.41 2.61 C 493.65 11.76 502.84 20.96 512.00 30.19 L 512.00 31.30 L 511.99 30.23 C 491.74 50.42 471.51 70.65 451.31 90.90 C 488.99 135.36 510.88 192.87 512.00 251.17 L 512.00 260.80 C 510.89 319.11 488.98 376.61 451.31 421.10 C 467.22 437.07 483.19 452.99 499.12 468.94 C 503.49 472.94 507.17 477.76 512.00 481.20 L 512.00 482.73 C 511.01 483.08 510.14 483.63 509.41 484.38 C 502.82 491.11 496.10 497.70 489.47 504.39 C 487.09 506.84 484.34 509.00 482.61 512.00 L 481.31 512.00 C 478.95 508.64 475.75 506.03 472.93 503.08 C 455.66 485.82 438.42 468.53 421.12 451.30 C 415.82 455.62 410.58 460.08 404.86 463.84 C 399.74 467.07 392.32 465.21 389.24 460.03 C 386.08 455.26 387.22 448.27 391.79 444.81 C 396.04 441.43 400.48 438.31 404.60 434.77 C 388.09 418.23 371.57 401.71 355.03 385.20 C 350.59 388.41 346.23 391.79 341.41 394.43 C 336.39 397.06 329.60 395.17 326.64 390.35 C 323.57 385.81 324.33 379.11 328.49 375.51 C 331.59 372.91 335.14 370.93 338.42 368.58 C 310.96 341.11 283.50 313.62 256.00 286.18 C 248.71 293.49 241.39 300.77 234.10 308.08 C 232.91 309.02 232.66 310.53 232.71 311.97 C 232.74 358.99 232.72 406.02 232.72 453.04 C 232.91 457.37 230.74 461.77 226.89 463.89 C 222.49 466.49 216.55 465.68 212.93 462.09 C 190.15 440.61 167.40 419.08 144.62 397.59 C 108.25 433.89 71.95 470.27 35.59 506.58 C 33.92 508.22 31.64 510.29 30.86 512.00 L 30.31 512.00 C 20.11 502.11 10.21 491.92 0.11 481.93 L 0.00 482.90 L 0.00 481.89 C 37.80 443.97 75.74 406.18 113.56 368.27 C 106.78 361.84 100.01 355.40 93.16 349.04 C 66.10 349.08 39.03 349.08 11.97 349.05 C 6.18 349.36 1.18 344.82 0.00 339.31 L 0.00 172.88 C 1.02 167.25 6.15 162.64 11.99 162.95 C 39.05 162.92 66.12 162.92 93.18 162.96 C 100.02 156.60 106.78 150.15 113.57 143.75 C 77.72 107.83 41.81 71.99 5.95 36.09 C 4.10 34.16 2.24 32.22 0.00 30.73 L 0.00 29.37 C 1.08 28.73 2.17 28.06 3.06 27.17 C 12.02 18.11 21.07 9.14 30.07 0.12 L 29.08 0.00 M 161.08 130.89 C 177.20 147.08 193.43 163.14 209.49 179.38 C 209.41 147.99 209.48 116.60 209.45 85.21 C 193.32 100.43 177.19 115.65 161.08 130.89 M 385.30 156.92 C 412.29 191.64 423.87 237.63 416.98 281.03 C 412.89 307.87 401.86 333.58 385.29 355.08 C 401.75 371.60 418.26 388.07 434.76 404.56 C 469.89 362.51 489.55 307.78 488.68 252.95 C 488.10 200.16 468.58 147.93 434.76 107.44 C 418.26 123.92 401.76 140.40 385.30 156.92 M 106.03 182.85 C 103.62 185.17 100.29 186.29 96.97 186.19 C 72.41 186.21 47.84 186.19 23.28 186.20 C 23.27 232.73 23.27 279.26 23.28 325.79 C 47.85 325.81 72.42 325.79 96.99 325.81 C 100.27 325.71 103.56 326.80 105.95 329.08 C 114.02 336.61 121.97 344.27 130.05 351.79 C 155.02 326.86 179.94 301.88 204.91 276.95 C 206.43 275.35 208.23 273.96 209.36 272.03 C 209.60 262.04 209.37 252.02 209.47 242.02 C 209.70 240.46 209.08 239.06 207.91 238.05 C 181.94 212.12 156.02 186.14 130.04 160.21 C 122.00 167.71 114.07 175.34 106.03 182.85 M 318.08 224.27 C 328.46 243.80 328.25 268.32 318.10 287.90 C 334.94 304.77 351.80 321.62 368.66 338.47 C 385.23 315.83 394.83 288.16 395.52 260.09 C 396.56 229.30 386.89 198.35 368.66 173.53 C 351.82 190.46 334.77 207.20 318.08 224.27 M 286.19 256.00 C 290.91 260.73 295.63 265.46 300.37 270.17 C 303.23 260.99 303.23 251.00 300.37 241.82 C 295.64 246.54 290.91 251.26 286.19 256.00 M 161.09 381.11 C 177.19 396.35 193.32 411.57 209.45 426.79 C 209.48 395.40 209.41 364.01 209.48 332.62 C 193.43 348.86 177.19 364.92 161.09 381.11 Z" />
</g>
</svg>
