<?xml version="1.0" encoding="UTF-8" ?>
<!DOCTYPE svg PUBLIC "-//W3C//DTD SVG 1.1//EN" "http://www.w3.org/Graphics/SVG/1.1/DTD/svg11.dtd">
<svg width="512pt" height="512pt" viewBox="0 0 512 512" version="1.1" xmlns="http://www.w3.org/2000/svg">
<g id="#000000ff">
<path fill="#002bfd" opacity="1.00" d=" M 254.99 0.00 L 257.10 0.00 C 261.40 0.77 264.76 4.57 264.50 9.01 C 264.62 27.69 264.45 46.38 264.58 65.06 C 264.55 68.20 264.57 71.81 262.13 74.17 C 258.98 77.62 252.98 77.61 249.84 74.15 C 247.40 71.79 247.44 68.18 247.42 65.05 C 247.55 46.37 247.38 27.69 247.49 9.02 C 247.21 4.53 250.65 0.72 254.99 0.00 Z" />
<path fill="#002bfd" opacity="1.00" d=" M 103.45 62.54 C 106.43 61.90 109.47 63.19 111.52 65.33 C 125.10 78.84 138.61 92.42 152.19 105.92 C 154.09 107.82 155.93 110.15 155.88 112.98 C 156.19 117.75 151.81 122.07 147.05 121.75 C 143.94 121.80 141.56 119.54 139.52 117.48 C 125.96 103.74 112.17 90.23 98.66 76.46 C 94.20 71.93 97.23 63.43 103.45 62.54 Z" />
<path fill="#002bfd" opacity="1.00" d=" M 405.47 62.52 C 410.12 61.57 415.03 65.23 415.42 69.98 C 415.88 73.07 414.15 75.90 412.01 77.95 C 398.48 91.44 384.97 104.95 371.48 118.48 C 369.69 120.24 367.47 121.87 364.84 121.85 C 360.04 122.20 355.63 117.78 356.01 112.97 C 355.99 110.35 357.62 108.16 359.39 106.39 C 372.91 92.89 386.43 79.40 399.91 65.86 C 401.46 64.35 403.24 62.85 405.47 62.52 Z" />
<path fill="#002bfd" opacity="1.00" d=" M 248.36 96.50 C 273.40 94.85 298.92 101.27 320.06 114.84 C 346.30 131.40 365.59 158.57 372.42 188.86 C 377.43 209.96 375.90 232.37 369.09 252.89 C 363.52 265.90 356.65 278.31 349.30 290.38 C 336.50 312.85 323.46 335.24 312.90 358.88 C 309.68 366.61 306.27 374.48 305.50 382.91 C 305.23 385.41 304.89 388.19 302.92 389.99 C 300.93 392.17 297.84 392.61 295.03 392.55 C 268.67 392.50 242.31 392.56 215.94 392.53 C 212.20 392.74 208.24 390.53 207.16 386.82 C 206.30 383.14 206.29 379.30 205.23 375.66 C 202.14 364.60 197.06 354.24 192.06 343.95 C 182.84 325.48 172.53 307.59 162.29 289.67 C 155.98 279.42 150.21 268.83 145.12 257.92 C 141.09 249.80 139.41 240.79 137.94 231.92 C 133.60 204.60 139.95 175.95 154.55 152.56 C 174.43 120.25 210.44 98.59 248.36 96.50 M 221.03 119.06 C 199.43 126.84 180.71 142.18 168.72 161.74 C 156.69 181.29 151.30 205.04 154.65 227.82 C 155.75 235.09 157.04 242.44 159.87 249.25 C 164.90 259.88 170.55 270.21 176.61 280.29 C 189.26 302.57 202.25 324.73 212.91 348.05 C 216.90 356.91 220.59 365.96 222.75 375.47 C 244.93 375.47 267.11 375.47 289.29 375.47 C 290.60 369.93 292.28 364.48 294.38 359.19 C 305.14 332.59 319.86 307.88 333.88 282.92 C 339.81 273.02 345.47 262.95 350.55 252.58 C 354.42 245.26 355.87 236.99 357.19 228.91 C 360.81 206.03 355.59 182.07 343.62 162.32 C 331.01 141.38 310.67 125.21 287.36 117.80 C 265.92 110.89 242.19 111.33 221.03 119.06 Z" />
<path fill="#002bfd" opacity="1.00" d=" M 40.46 213.67 C 42.29 213.28 44.17 213.32 46.04 213.30 C 64.72 213.40 83.41 213.26 102.10 213.37 C 106.11 213.19 109.97 216.11 110.72 220.08 C 111.71 224.24 109.01 228.89 104.86 229.98 C 102.63 230.51 100.31 230.41 98.04 230.43 C 79.70 230.32 61.36 230.48 43.02 230.36 C 39.09 230.55 35.27 227.79 34.40 223.92 C 33.21 219.60 36.07 214.67 40.46 213.67 Z" />
<path fill="#002bfd" opacity="1.00" d=" M 407.48 213.65 C 408.95 213.33 410.47 213.33 411.99 213.30 C 430.69 213.37 449.39 213.32 468.09 213.33 C 470.64 213.30 473.40 213.80 475.23 215.74 C 478.73 218.90 478.67 224.98 475.13 228.09 C 473.27 229.97 470.53 230.41 468.00 230.41 C 449.32 230.42 430.64 230.36 411.96 230.43 C 408.44 230.62 404.45 229.79 402.49 226.56 C 399.22 222.00 401.95 214.77 407.48 213.65 Z" />
<path fill="#002bfd" opacity="1.00" d=" M 197.15 235.18 C 198.95 231.27 203.86 229.42 207.84 230.99 C 223.91 236.26 239.94 241.68 255.99 247.00 C 272.08 241.77 288.08 236.23 304.16 230.99 C 308.36 229.29 313.52 231.55 315.11 235.78 C 316.53 239.18 314.91 242.76 313.97 246.06 C 303.09 281.16 292.34 316.30 281.52 351.42 C 280.57 355.67 276.44 358.99 272.02 358.30 C 266.81 357.85 263.16 351.99 265.03 347.10 C 274.66 315.47 284.47 283.89 294.16 252.27 C 283.24 255.94 272.30 259.52 261.40 263.24 C 258.76 264.10 255.90 265.05 253.17 263.98 C 241.37 260.15 229.65 256.06 217.84 252.28 C 227.52 283.86 237.32 315.41 246.94 347.00 C 248.85 351.90 245.26 357.82 240.01 358.30 C 235.57 359.01 231.42 355.68 230.48 351.42 C 219.65 316.27 208.89 281.11 198.01 245.98 C 196.99 242.54 195.30 238.65 197.15 235.18 Z" />
<path fill="#002bfd" opacity="1.00" d=" M 144.34 322.58 C 149.11 320.65 154.99 324.06 155.67 329.16 C 156.32 332.29 154.74 335.31 152.52 337.43 C 139.18 350.76 125.82 364.07 112.53 377.44 C 110.74 379.19 108.69 381.01 106.06 381.18 C 101.32 381.83 96.67 377.78 96.63 373.00 C 96.43 370.26 97.95 367.81 99.83 365.96 C 113.19 352.59 126.59 339.26 139.90 325.85 C 141.23 324.59 142.59 323.25 144.34 322.58 Z" />
<path fill="#002bfd" opacity="1.00" d=" M 361.34 322.61 C 364.67 321.12 368.62 322.26 371.05 324.86 C 383.10 336.85 395.10 348.88 407.13 360.89 C 409.69 363.62 412.85 365.94 414.59 369.33 C 416.85 374.17 413.33 380.41 408.04 381.02 C 404.70 381.69 401.65 379.78 399.48 377.44 C 385.91 363.72 372.18 350.17 358.61 336.46 C 354.29 332.52 355.88 324.64 361.34 322.61 Z" />
<path fill="#002bfd" opacity="1.00" d=" M 279.57 403.79 C 283.71 403.49 287.87 402.53 292.03 403.01 C 297.16 403.98 300.21 410.24 297.85 414.90 C 296.54 417.92 293.36 419.68 290.16 419.87 C 268.31 422.14 246.44 424.19 224.59 426.47 C 221.77 426.77 218.61 426.70 216.40 424.66 C 212.75 421.78 212.33 415.85 215.51 412.46 C 217.30 410.26 220.23 409.68 222.91 409.43 C 241.80 407.60 260.68 405.69 279.57 403.79 Z" />
<path fill="#002bfd" opacity="1.00" d=" M 275.52 429.79 C 280.66 429.40 285.77 428.44 290.94 428.47 C 295.99 428.69 299.78 434.18 298.38 439.00 C 297.53 442.81 293.87 445.31 290.09 445.49 C 268.06 447.70 246.04 449.90 224.01 452.10 C 221.44 452.38 218.62 452.17 216.59 450.41 C 212.90 447.65 212.26 441.82 215.27 438.34 C 217.07 435.92 220.18 435.24 223.02 435.02 C 240.53 433.37 258.02 431.50 275.52 429.79 Z" />
<path fill="#002bfd" opacity="1.00" d=" M 281.55 454.78 C 286.60 454.43 293.07 452.40 296.74 457.14 C 301.05 461.97 297.54 470.58 291.05 470.93 C 269.21 473.31 247.32 475.26 225.48 477.59 C 222.56 477.86 219.27 478.17 216.83 476.20 C 213.01 473.56 212.19 467.67 215.16 464.09 C 216.77 461.82 219.56 460.96 222.21 460.71 C 241.99 458.73 261.78 456.82 281.55 454.78 Z" />
<path fill="#002bfd" opacity="1.00" d=" M 216.67 502.23 C 210.81 498.34 213.30 488.25 220.17 487.24 C 228.13 486.22 233.17 495.13 240.99 494.96 C 249.97 494.99 258.96 494.85 267.94 494.99 C 270.62 494.90 273.50 495.24 275.96 493.93 C 280.38 491.82 284.18 488.30 289.03 487.19 C 294.36 486.20 299.48 491.43 298.57 496.73 C 298.27 500.32 295.21 502.66 292.30 504.28 C 287.53 506.95 282.92 509.98 277.81 512.00 L 234.46 512.00 C 228.15 509.53 222.36 505.85 216.67 502.23 Z" />
</g>
</svg>
