<?xml version="1.0" encoding="UTF-8" ?>
<!DOCTYPE svg PUBLIC "-//W3C//DTD SVG 1.1//EN" "http://www.w3.org/Graphics/SVG/1.1/DTD/svg11.dtd">
<svg width="512pt" height="512pt" viewBox="0 0 512 512" version="1.1" xmlns="http://www.w3.org/2000/svg">
<g id="#000000ff">
<path fill="#002bfd" opacity="1.00" d=" M 29.19 0.00 L 30.62 0.00 C 31.94 1.76 33.46 3.36 35.05 4.88 C 55.78 25.54 76.40 46.31 97.18 66.93 C 99.05 64.94 101.10 62.62 104.03 62.45 C 107.15 61.96 110.03 63.71 112.11 65.87 C 125.44 79.23 138.79 92.58 152.17 105.90 C 154.36 108.05 156.35 110.87 155.84 114.12 C 155.75 117.13 153.30 119.19 151.38 121.21 C 156.46 126.26 161.51 131.34 166.58 136.39 C 185.39 115.26 211.76 101.02 239.84 97.34 C 265.61 93.83 292.52 98.85 315.09 111.84 C 326.50 118.28 336.67 126.75 345.48 136.41 C 350.45 131.37 355.47 126.37 360.50 121.37 C 358.58 119.29 356.09 117.19 356.03 114.11 C 355.45 110.00 358.69 107.01 361.33 104.41 C 374.25 91.61 387.07 78.72 399.92 65.85 C 401.97 63.72 404.80 61.98 407.87 62.44 C 410.86 62.61 412.95 64.98 414.92 66.96 C 435.05 46.76 455.25 26.62 475.41 6.44 C 477.43 4.37 479.73 2.50 481.27 0.00 L 482.56 0.00 C 485.03 3.91 488.85 6.68 491.93 10.08 C 498.51 16.34 504.50 23.29 511.45 29.11 L 512.00 29.44 L 512.00 30.51 C 501.56 40.21 491.75 50.63 481.56 60.62 C 443.73 98.43 405.94 136.29 368.08 174.07 C 373.63 189.69 376.45 206.44 375.06 223.02 C 373.82 235.88 371.66 249.00 365.63 260.58 C 357.82 277.22 347.65 292.58 338.89 308.71 C 344.80 314.62 350.73 320.52 356.61 326.45 C 358.67 324.51 360.80 322.07 363.86 322.00 C 366.92 321.57 369.62 323.37 371.67 325.43 C 384.98 338.77 398.31 352.09 411.66 365.40 C 413.69 367.43 415.55 370.03 415.24 373.07 C 415.28 376.28 412.75 378.49 410.73 380.62 C 444.57 414.24 478.15 448.12 512.00 481.74 L 512.00 481.75 C 505.07 488.94 497.88 495.88 490.87 502.99 C 488.18 505.77 485.15 508.26 482.96 511.47 L 482.80 512.00 L 481.37 512.00 C 474.37 503.92 466.33 496.77 458.91 489.06 C 411.92 442.08 364.94 395.08 317.94 348.10 C 313.58 357.06 309.38 366.18 306.72 375.82 C 305.73 379.45 305.66 383.25 304.79 386.90 C 303.73 390.63 299.74 392.70 296.04 392.52 C 269.36 392.54 242.68 392.54 216.00 392.52 C 212.30 392.72 208.31 390.64 207.22 386.94 C 206.28 383.00 206.21 378.89 205.05 374.99 C 202.35 365.68 198.31 356.82 194.07 348.13 C 141.39 400.77 88.75 453.45 36.08 506.10 C 34.21 507.97 32.15 509.72 30.74 512.00 L 29.44 512.00 C 27.98 509.38 25.63 507.50 23.57 505.40 C 16.93 498.73 10.25 492.09 3.62 485.41 C 2.51 484.33 1.52 483.04 0.00 482.53 L 0.00 481.40 C 0.49 481.02 1.48 480.27 1.97 479.90 C 35.02 446.82 68.09 413.76 101.16 380.70 C 99.36 378.74 97.01 376.86 96.73 374.02 C 96.13 370.95 97.71 368.01 99.85 365.93 C 113.19 352.59 126.57 339.28 139.86 325.89 C 141.99 323.68 144.79 321.64 148.05 322.11 C 151.11 322.18 153.22 324.65 155.28 326.58 C 161.22 320.62 167.18 314.68 173.12 308.73 C 164.10 292.15 153.63 276.36 145.71 259.20 C 140.94 249.86 139.02 239.40 137.55 229.11 C 134.99 210.58 137.63 191.58 143.92 174.04 C 98.89 129.08 53.92 84.05 8.91 39.06 C 6.01 36.21 3.33 33.08 0.00 30.71 L 0.00 29.38 C 5.00 26.02 8.70 21.15 13.10 17.09 C 18.34 11.50 24.33 6.59 29.04 0.53 L 29.19 0.00 M 178.54 148.21 C 204.22 174.23 230.21 199.93 256.00 225.82 C 281.84 199.98 307.74 174.21 333.48 148.28 C 328.33 142.54 322.72 137.19 316.46 132.67 C 295.86 117.37 269.33 110.55 243.89 113.63 C 218.77 116.46 195.16 129.23 178.54 148.21 M 157.34 187.56 C 151.81 207.31 152.71 228.64 159.33 248.00 C 166.80 264.72 176.83 280.09 185.59 296.14 C 192.82 289.18 199.82 281.97 206.94 274.90 C 203.51 263.57 199.87 252.31 196.56 240.95 C 195.34 236.99 197.83 233.28 200.92 231.05 C 186.36 216.59 171.94 201.98 157.34 187.56 M 311.11 231.05 C 314.16 233.32 316.65 237.01 315.43 240.98 C 312.12 252.32 308.50 263.56 305.06 274.86 C 312.20 281.95 319.20 289.18 326.46 296.14 C 335.19 280.09 345.21 264.71 352.67 247.99 C 359.27 228.64 360.19 207.33 354.65 187.59 C 340.07 202.02 325.65 216.60 311.11 231.05 M 220.52 261.16 C 222.41 259.42 224.25 257.63 226.04 255.80 C 223.58 254.15 220.82 253.06 218.00 252.24 C 218.73 255.24 219.62 258.20 220.52 261.16 M 285.99 255.80 C 287.78 257.62 289.60 259.41 291.47 261.15 C 292.39 258.20 293.28 255.24 293.97 252.23 C 291.18 253.12 288.46 254.22 285.99 255.80 M 234.87 307.24 C 238.65 320.54 243.03 333.68 246.93 346.95 C 248.71 351.50 245.78 357.10 240.98 358.11 C 236.65 359.32 231.86 356.47 230.74 352.14 C 227.46 341.81 224.38 331.41 221.13 321.07 C 216.64 325.61 212.01 330.03 207.59 334.64 C 206.49 335.59 207.88 337.00 208.13 338.04 C 214.04 350.06 219.70 362.36 222.75 375.46 C 244.93 375.47 267.11 375.47 289.29 375.47 C 292.47 361.30 299.07 348.28 305.11 335.19 C 300.30 330.54 295.64 325.73 290.87 321.04 C 287.64 331.37 284.55 341.75 281.29 352.07 C 280.18 356.45 275.34 359.35 270.97 358.10 C 266.22 357.07 263.29 351.53 265.05 347.00 C 268.97 333.71 273.33 320.55 277.15 307.22 C 270.03 300.28 263.08 293.16 256.00 286.18 C 248.95 293.19 241.99 300.29 234.87 307.24 Z" />
<path fill="#002bfd" opacity="1.00" d=" M 254.99 0.00 L 257.61 0.00 C 261.56 1.12 264.72 4.65 264.50 8.89 C 264.61 27.60 264.46 46.31 264.57 65.01 C 264.58 68.17 264.59 71.80 262.13 74.16 C 258.98 77.63 252.96 77.62 249.83 74.13 C 247.64 72.02 247.41 68.81 247.44 65.95 C 247.53 46.94 247.41 27.93 247.49 8.92 C 247.25 4.48 250.68 0.69 254.99 0.00 Z" />
<path fill="#002bfd" opacity="1.00" d=" M 40.51 213.64 C 42.34 213.27 44.22 213.33 46.07 213.31 C 64.71 213.39 83.34 213.27 101.98 213.36 C 105.97 213.13 109.86 215.99 110.69 219.92 C 111.67 223.80 109.49 228.12 105.81 229.66 C 103.66 230.52 101.29 230.39 99.02 230.43 C 80.35 230.34 61.69 230.47 43.03 230.37 C 39.14 230.55 35.37 227.86 34.44 224.06 C 33.14 219.67 36.06 214.66 40.51 213.64 Z" />
<path fill="#002bfd" opacity="1.00" d=" M 407.46 213.64 C 408.95 213.33 410.49 213.34 412.01 213.31 C 430.33 213.35 448.65 213.35 466.97 213.31 C 470.80 212.95 475.16 214.25 476.90 217.98 C 479.82 223.09 475.78 230.28 469.86 230.31 C 450.26 230.53 430.65 230.32 411.05 230.41 C 407.25 230.72 403.19 228.87 401.75 225.18 C 399.65 220.62 402.56 214.72 407.46 213.64 Z" />
<path fill="#002bfd" opacity="1.00" d=" M 279.51 403.80 C 283.31 403.48 287.10 402.78 290.93 402.86 C 296.23 403.10 300.08 409.11 298.19 414.04 C 297.10 417.53 293.62 419.75 290.05 419.89 C 268.23 422.14 246.38 424.20 224.56 426.47 C 221.99 426.72 219.17 426.78 217.01 425.13 C 213.06 422.55 212.14 416.56 215.14 412.91 C 216.91 410.41 220.07 409.63 222.96 409.43 C 241.82 407.60 260.66 405.69 279.51 403.80 Z" />
<path fill="#002bfd" opacity="1.00" d=" M 275.51 429.79 C 280.66 429.40 285.78 428.46 290.95 428.46 C 296.75 428.71 300.57 435.79 297.69 440.81 C 296.16 444.09 292.48 445.47 289.07 445.61 C 267.02 447.74 245.00 450.07 222.95 452.17 C 219.74 452.58 216.39 451.08 214.69 448.31 C 212.38 444.88 213.15 439.84 216.35 437.24 C 218.46 435.32 221.46 435.20 224.14 434.90 C 241.28 433.31 258.38 431.46 275.51 429.79 Z" />
<path fill="#002bfd" opacity="1.00" d=" M 281.63 454.78 C 285.67 454.61 290.03 453.11 293.89 454.87 C 297.95 456.73 299.84 462.05 297.86 466.06 C 296.54 469.17 293.22 470.97 289.93 471.10 C 268.23 473.33 246.51 475.39 224.81 477.64 C 222.12 477.91 219.13 478.02 216.89 476.25 C 213.04 473.63 212.18 467.73 215.12 464.13 C 216.69 461.93 219.37 460.96 221.98 460.74 C 241.86 458.74 261.75 456.82 281.63 454.78 Z" />
<path fill="#002bfd" opacity="1.00" d=" M 213.37 496.03 C 212.91 490.88 218.02 486.18 223.11 487.20 C 228.93 488.53 233.16 493.59 238.96 494.84 C 249.32 495.13 259.69 494.80 270.05 494.98 C 277.75 495.67 282.64 487.83 289.98 487.09 C 294.74 486.85 299.04 491.29 298.62 496.04 C 298.61 499.28 296.32 501.96 293.61 503.48 C 288.55 506.41 283.55 509.48 278.26 512.00 L 233.88 512.00 C 228.74 509.68 224.00 506.59 219.08 503.86 C 216.13 502.29 213.35 499.59 213.37 496.03 Z" />
</g>
</svg>
