<?xml version="1.0" encoding="UTF-8" ?>
<!DOCTYPE svg PUBLIC "-//W3C//DTD SVG 1.1//EN" "http://www.w3.org/Graphics/SVG/1.1/DTD/svg11.dtd">
<svg width="512pt" height="512pt" viewBox="0 0 512 512" version="1.1" xmlns="http://www.w3.org/2000/svg">
<g id="#000000ff">
<path fill="#002bfd" opacity="1.00" d=" M 30.15 0.00 L 30.17 0.00 C 75.19 44.96 120.14 90.01 165.18 134.96 C 165.22 125.61 165.11 116.27 165.23 106.92 C 165.35 100.92 169.68 95.37 175.41 93.65 C 256.40 67.95 337.37 42.19 418.35 16.48 C 435.74 11.00 453.06 5.29 470.51 0.00 L 474.27 0.00 C 476.18 0.47 478.03 1.17 479.85 1.92 C 480.36 1.45 481.37 0.51 481.88 0.04 C 491.93 10.06 501.94 20.12 512.00 30.14 L 512.00 30.16 C 503.70 38.53 495.31 46.83 487.00 55.20 C 486.84 154.13 487.01 253.07 486.92 352.01 C 486.84 365.46 481.49 378.60 472.79 388.77 C 464.46 398.67 453.42 406.03 441.54 411.01 C 446.82 417.10 452.97 422.56 458.59 428.41 C 476.40 446.21 494.19 464.02 512.00 481.80 L 512.00 481.84 C 501.96 491.90 491.90 501.94 481.85 512.00 L 481.84 512.00 C 452.23 482.37 422.60 452.76 392.98 423.14 C 390.85 421.28 389.22 418.68 386.64 417.44 C 374.66 415.51 362.87 411.78 352.38 405.60 C 340.00 398.47 329.21 388.04 323.12 374.99 C 319.16 366.65 317.47 357.32 317.92 348.12 C 297.32 327.44 276.67 306.80 256.00 286.19 C 235.40 306.87 214.63 327.38 194.15 348.17 C 194.15 380.11 194.15 412.04 194.15 443.98 C 194.21 451.98 192.64 460.00 189.38 467.32 C 183.04 481.70 171.02 492.99 157.32 500.36 C 144.22 507.55 129.38 511.02 114.55 512.00 L 104.01 512.00 C 84.60 510.69 65.21 504.56 49.78 492.46 C 43.38 498.96 36.53 505.21 30.57 512.00 L 29.41 512.00 C 29.39 511.82 29.34 511.46 29.31 511.28 C 19.85 501.31 9.73 491.96 0.34 481.92 L 0.00 483.56 L 0.00 481.85 C 8.67 473.16 17.37 464.50 26.04 455.80 C 23.05 440.09 26.95 423.32 36.68 410.62 C 52.33 389.86 78.42 379.15 103.88 377.82 C 124.41 357.63 144.63 337.11 165.05 316.80 C 165.36 277.56 165.08 238.30 165.20 199.05 C 165.01 197.57 165.67 195.66 164.38 194.54 C 110.58 140.72 56.75 86.91 2.94 33.09 C 1.99 32.19 1.15 31.12 0.00 30.45 L 0.00 29.93 C 10.28 20.22 20.10 9.97 30.15 0.00 M 194.15 118.08 C 194.14 133.32 194.16 148.57 194.14 163.82 C 199.61 169.57 205.31 175.12 210.96 180.71 C 254.34 167.02 297.67 153.17 341.04 139.44 C 342.36 139.16 343.46 138.40 344.39 137.44 C 377.28 104.68 409.95 71.70 442.94 39.04 C 360.02 65.41 277.06 91.68 194.15 118.08 M 431.15 110.80 C 440.09 107.94 449.05 105.16 457.97 102.23 C 457.98 96.23 457.97 90.22 457.97 84.21 C 449.00 93.04 440.31 102.17 431.15 110.80 M 387.25 155.21 C 381.93 159.91 377.15 165.20 372.05 170.14 C 343.43 198.76 314.80 227.36 286.20 256.00 C 303.43 273.25 320.66 290.51 337.93 307.72 C 355.71 291.50 380.20 283.80 404.04 284.28 C 423.06 284.53 442.18 289.87 457.97 300.62 C 457.96 244.63 457.99 188.63 457.96 132.63 C 434.41 140.23 410.77 147.56 387.25 155.21 M 234.08 203.88 C 241.37 211.21 248.69 218.50 256.00 225.81 C 270.36 211.68 284.37 197.18 298.86 183.20 C 277.30 190.19 255.66 196.94 234.08 203.88 M 194.13 224.23 C 194.16 245.41 194.16 266.59 194.13 287.77 C 204.65 277.13 215.29 266.61 225.83 256.00 C 215.29 245.38 204.64 234.87 194.13 224.23 M 383.98 315.49 C 374.76 317.90 365.57 321.87 358.62 328.51 C 378.53 348.25 398.28 368.15 418.14 387.95 C 430.20 385.33 442.10 379.83 450.32 370.39 C 455.97 364.00 459.31 355.15 457.58 346.61 C 455.63 336.56 448.12 328.58 439.69 323.30 C 423.24 313.18 402.59 310.89 383.98 315.49 M 154.39 387.80 C 158.18 389.48 161.51 392.06 165.21 393.83 C 165.15 388.22 165.20 382.62 165.18 377.03 C 161.56 380.60 157.98 384.20 154.39 387.80 M 70.50 471.69 C 91.10 485.28 118.81 486.50 141.02 476.13 C 150.91 471.36 160.25 463.66 163.82 452.93 C 166.68 444.70 164.68 435.36 159.57 428.45 C 152.92 419.35 142.70 413.29 132.03 410.13 C 111.55 430.68 90.99 451.15 70.50 471.69 Z" />
</g>
</svg>
