<?xml version="1.0" encoding="UTF-8" ?>
<!DOCTYPE svg PUBLIC "-//W3C//DTD SVG 1.1//EN" "http://www.w3.org/Graphics/SVG/1.1/DTD/svg11.dtd">
<svg width="512pt" height="512pt" viewBox="0 0 512 512" version="1.1" xmlns="http://www.w3.org/2000/svg">
<g id="#161c27ff">
<path fill="#002bfd" opacity="1.00" d=" M 232.14 71.58 C 274.85 65.87 318.85 76.57 356.05 97.78 C 344.43 109.42 332.79 121.03 321.15 132.65 C 302.06 123.37 281.24 117.49 259.97 116.66 C 229.72 115.53 199.24 125.05 174.75 142.78 C 148.21 161.77 128.60 190.33 120.79 222.05 C 117.78 233.10 116.79 244.58 116.38 256.00 C 139.64 256.01 162.91 255.99 186.17 256.01 C 155.15 287.04 124.13 318.07 93.09 349.09 C 62.06 318.06 31.03 287.04 0.01 256.01 C 23.28 255.99 46.55 256.01 69.82 255.99 C 70.17 215.86 83.27 175.76 107.85 143.92 C 137.35 104.45 183.24 77.71 232.14 71.58 Z" />
<path fill="#002bfd" opacity="1.00" d=" M 325.83 255.99 C 356.85 224.96 387.87 193.93 418.91 162.91 C 447.62 191.61 476.32 220.32 505.03 249.02 C 507.21 251.30 509.39 253.60 512.00 255.41 L 512.00 255.80 C 488.74 256.26 465.46 255.87 442.19 256.00 C 441.68 270.69 440.42 285.43 436.71 299.68 C 427.89 336.67 407.17 370.66 378.53 395.65 C 348.87 421.95 310.53 438.19 271.03 441.38 C 231.07 444.56 190.61 433.99 155.95 414.22 C 167.57 402.58 179.21 390.97 190.84 379.35 C 197.89 382.29 204.68 385.90 212.06 387.96 C 237.04 396.31 264.45 398.01 290.01 391.21 C 329.81 381.44 364.41 352.93 381.86 315.88 C 390.93 297.30 395.28 276.63 395.62 256.00 C 372.35 255.99 349.09 256.01 325.83 255.99 Z" />
</g>
</svg>
