<?xml version="1.0" encoding="UTF-8" ?>
<!DOCTYPE svg PUBLIC "-//W3C//DTD SVG 1.1//EN" "http://www.w3.org/Graphics/SVG/1.1/DTD/svg11.dtd">
<svg width="512pt" height="512pt" viewBox="0 0 512 512" version="1.1" xmlns="http://www.w3.org/2000/svg">
<g id="#000000ff">
<path fill="#002bfd" opacity="1.00" d=" M 212.95 49.89 C 216.02 46.87 220.78 45.70 224.86 47.19 C 229.79 48.78 233.04 53.89 232.73 59.01 C 232.72 190.36 232.73 321.71 232.72 453.06 C 232.83 456.67 231.44 460.37 228.60 462.69 C 224.22 466.53 217.05 466.24 212.96 462.11 C 173.50 424.86 134.04 387.61 94.61 350.33 C 93.70 349.27 92.40 348.88 91.05 349.04 C 64.67 349.08 38.29 349.07 11.91 349.05 C 6.03 349.33 0.82 344.58 0.00 338.85 L 0.00 173.50 C 0.56 167.56 5.99 162.64 11.99 162.95 C 39.05 162.93 66.11 162.91 93.17 162.96 C 133.15 125.33 173.02 87.57 212.95 49.89 M 106.00 182.88 C 103.60 185.18 100.27 186.30 96.97 186.19 C 72.40 186.21 47.84 186.19 23.28 186.21 C 23.27 232.74 23.27 279.27 23.28 325.80 C 47.86 325.81 72.45 325.79 97.03 325.81 C 100.30 325.71 103.58 326.82 105.96 329.09 C 140.46 361.61 174.89 394.21 209.40 426.73 C 209.48 312.91 209.51 199.09 209.39 85.27 C 174.92 117.80 140.48 150.36 106.00 182.88 Z" />
<path fill="#002bfd" opacity="1.00" d=" M 389.56 51.52 C 393.05 46.22 401.01 44.97 405.99 48.88 C 440.54 73.81 468.57 107.62 486.92 146.06 C 502.69 178.87 511.22 215.08 512.00 251.46 L 512.00 260.52 C 511.63 273.11 510.57 285.70 508.43 298.12 C 497.52 363.89 459.70 424.73 405.44 463.49 C 400.07 467.34 391.75 465.22 388.83 459.32 C 385.84 454.09 387.90 447.07 392.90 443.89 C 433.47 414.39 464.00 371.43 478.58 323.44 C 491.31 282.15 492.04 237.27 480.62 195.59 C 466.93 144.79 435.45 99.01 392.87 68.09 C 387.44 64.67 385.65 56.72 389.56 51.52 Z" />
<path fill="#002bfd" opacity="1.00" d=" M 331.30 117.56 C 334.88 115.78 339.33 116.08 342.68 118.26 C 370.14 135.44 392.34 160.97 405.28 190.69 C 418.36 220.41 422.10 254.08 416.13 285.97 C 408.11 330.55 380.18 371.01 341.44 394.44 C 335.96 397.31 328.49 394.76 325.95 389.12 C 323.13 383.78 325.46 376.76 330.65 373.83 C 348.72 362.31 364.22 346.72 375.35 328.39 C 387.88 307.89 394.89 284.08 395.52 260.07 C 396.26 236.30 390.80 212.35 379.71 191.30 C 369.23 171.25 353.70 153.90 335.05 141.11 C 331.62 138.70 327.37 136.74 325.70 132.60 C 323.16 127.12 325.84 120.06 331.30 117.56 Z" />
<path fill="#002bfd" opacity="1.00" d=" M 286.41 198.62 C 290.12 197.16 294.52 197.81 297.67 200.26 C 308.14 207.99 316.39 218.72 321.11 230.87 C 327.26 246.59 327.36 264.57 321.40 280.36 C 316.67 293.01 308.10 304.18 297.17 312.10 C 291.91 315.98 283.63 314.15 280.56 308.37 C 277.46 303.33 279.12 296.26 283.99 292.96 C 293.80 285.56 300.64 274.23 302.14 261.98 C 304.14 247.65 298.79 232.60 288.26 222.70 C 285.25 219.67 280.92 217.57 279.60 213.21 C 277.50 207.54 280.75 200.68 286.41 198.62 Z" />
</g>
</svg>
